<svg width="246" height="540" viewBox="0 0 246 540" fill="none" xmlns="http://www.w3.org/2000/svg">
<path d="M63.237 483.754L63.242 483.025L63.165 482.814L62.878 482.723L61.906 482.488L61.705 482.419L61.331 482.172L61.108 482.085L58.662 481.674L58.192 481.475L56.36 480.388L53.842 479.563L50.483 479.453L48.285 478.496L46.201 477.588L44.732 476.949L43.735 476.932L40.961 476.893L38.187 476.854L35.413 476.815L32.638 476.776L29.864 476.737L27.09 476.696L24.315 476.657L21.541 476.618L20.556 476.604L19.971 476.216L20.033 475.364L20.177 474.727L20.054 474.169L19.768 473.71L19.422 473.368L18.65 472.389L17.795 471.61L17.242 471.238L16.085 470.856L15.844 470.657L15.679 470.261L15.573 469.165L15.473 468.831L15.219 468.516L14.921 468.438L14.597 468.442L14.263 468.368L14.005 467.906L14.346 467.307L15.221 466.39L15.257 466.239L15.247 466.055L15.223 465.865L15.215 465.688L15.257 465.492L15.338 465.343L15.427 465.213L15.494 465.064L15.561 464.709L15.564 463.599L15.599 463.168L15.686 462.881L16.214 462.125L16.358 461.843L16.373 461.557L16.171 461.285L15.242 460.64L14.839 460.183L14.584 459.504L14.566 459.107L14.665 458.838L15.014 458.34L15.228 457.949L15.377 457.759L15.575 457.674L15.932 457.607L16.134 457.179L16.271 456.268L16.384 454.598L16.301 453.841L16.049 453.342L15.714 452.915L15.382 452.368L15.268 452.028L15.264 451.753L15.347 451.484L15.791 450.509L15.816 450.198L15.581 450.056L15.294 449.974L14.825 449.643L13.316 449.274L12.785 449.542L11.936 450.545L11.389 450.565L11.142 450.405L10.516 449.721L10.242 449.569L9.96301 449.631L8.43201 450.541L7.99503 450.906L7.11301 451.898L6.60101 452.314L6.05502 452.563L5.52103 452.555L5.05103 452.151L4.94 451.514L4.95801 450.771L4.87201 450.051L4.74402 449.762L4.22501 449.045L4.069 448.727L4.01703 448.409L4.01801 447.295L3.867 446.254L3.84601 445.875L3.88303 445.087L3.86502 444.696L3.74002 444.09L3.53003 443.445L3.26501 442.844L2.97702 442.369L2.746 442.144L2.24503 441.856L0.710022 440.393L0.576019 439.873L0.699005 439.286L1.32303 438.128L1.35001 437.875L1.24103 437.525L1.08401 437.286L0.417023 436.683L0.192017 436.4L0.245026 436.165L0.422028 435.936L0.570007 435.677L0.615021 435.338L0.608002 435.048L0.661011 434.782L1.311 434.086L1.54001 433.629L1.51401 433.111L1.17502 432.499L0.779022 432.084L0.598022 431.83L0.513 431.527L0.583008 431.199L0.738007 430.912L0.860016 430.61L0.824005 430.239L0.678009 429.954L0.318024 429.532L0.154022 429.295L0 428.94L0.0180054 428.74L0.39502 428.325L0.559021 428.002L0.537018 427.748L0.458008 427.476L0.453003 427.112L0.585022 426.805L0.808014 426.596L1.28101 426.293L1.49103 426.045L1.548 425.807L1.444 425.188L1.436 424.716L1.59903 424.537L5.44803 424.461L5.49402 424.12L5.625 423.991L6.02402 423.878L6.03201 423.761L5.233 423.603L5.13602 423.465L4.98001 423.242L4.96503 422.775L5.125 422.306L5.914 421.281L6.03802 421.026L6.06601 420.789L6.06302 420.546L6.09802 420.268L6.26703 419.849L7.01703 418.715H7.01801L7.11301 418.568L7.60602 418.08L8.18903 417.853L9.38602 417.708L9.92401 417.509L10.395 417.133L11.268 416.182L11.922 415.372L12.248 414.839L12.373 414.268L12.424 413.547L12.348 411.573L12.073 410.55L11.973 409.603L12.44 408.529L12.919 408.142L13.428 407.843L14.207 407.569L14.409 407.399L14.754 406.901L14.896 406.643L14.967 406.57L15.124 406.507L15.294 406.52L15.656 406.642L15.817 406.59L15.906 406.326L15.8 406.007L15.63 405.692L15.531 405.444L15.549 405.131L15.704 404.436L15.729 404.071L15.437 401.851L15.316 401.476L14.898 401.324L14.763 401.244L14.671 401.116L14.642 400.958L14.629 400.791L14.583 400.624L14.379 400.356L14.161 400.257L13.925 400.2L13.662 400.065L13.269 399.683L12.951 399.184L12.845 398.615L13.087 398.025L13.379 397.479L13.699 396.195L13.909 395.578L15.071 393.492L15.208 393.186L15.298 392.894L15.353 392.583L15.382 392.227L15.603 391.248L15.588 391.001L15.383 390.811L15.127 390.728L14.977 390.566L15.091 390.137L15.27 389.87L15.49 389.692L15.989 389.483L16.299 389.462L16.961 389.579L17.229 389.528L17.436 389.348L17.746 388.88L18.822 387.611L19.065 387.159L19.172 386.844L19.158 386.662L19.082 386.48L19.003 386.177L18.979 385.868L19.024 385.649L19.161 385.537L19.413 385.548L20.201 386.083L20.61 386.207L21.002 385.978L21.216 385.519L21.225 385.018L21.083 384.541L20.845 384.158L20.515 383.894L19.727 383.42L19.47 383.084L19.534 382.727L20.337 382.225L20.582 381.938L20.436 381.673L20.023 381.284L19.898 381.036L19.907 380.775L20.109 379.709L20.165 379.579L20.249 379.46L20.318 379.341L20.328 379.194L20.271 379.053L20.195 378.925L20.14 378.789L20.148 378.616L20.345 378.356L20.673 378.272L21.309 378.265L21.576 378.159L21.755 377.986L22.079 377.485L22.291 377.253L22.978 376.849L23.384 376.391L23.47 375.844L23.281 374.546L23.31 374.224L23.402 373.95L23.467 373.669L23.413 373.331L22.589 371.077L22.469 370.452L22.452 369.748L22.497 368.936L22.447 368.43L22.208 368.077L21.468 367.57L20.873 366.98L20.76 366.908L20.649 366.868L20.585 366.791L20.611 366.609L20.711 366.506L20.883 366.455L21.795 366.338L22.091 366.252L22.363 366.087L22.538 365.874L22.79 365.352L22.937 365.112L23.852 364.08L24.306 363.569L24.157 362.925L23.949 362.422L23.647 362.038L23.217 361.764L22.696 361.57L22.508 361.404L22.429 361.101L22.488 360.835L22.594 360.587L22.624 360.321L22.454 360.002L22.132 359.689L22.016 359.496L21.976 359.215L22.004 359.093L22.199 358.765L22.238 358.605L22.211 358.49L22.166 358.384L22.147 358.253L22.172 357.964L22.215 357.766L22.434 357.322L22.504 357.237L22.594 357.148L22.671 357.048L22.701 356.932L22.655 356.808L22.468 356.614L22.427 356.547L22.618 356.14L23.059 355.859L23.571 355.69L23.975 355.626L24.929 355.695L25.37 355.608L25.822 355.249L25.957 354.972L25.918 354.713L25.669 354.202L25.562 353.845L25.587 353.669L26.822 353.149L27.05 353.01L27.235 352.807L27.525 352.346L27.727 352.171L28.007 351.762L27.938 351.198L27.674 350.622L27.371 350.178L26.975 349.779L26.316 349.308L25.846 348.686L25.725 348.482L25.502 347.682L25.009 346.638L24.596 346.156L24.162 346.1L23.698 346.174L23.198 346.079L22.998 345.917L22.676 345.504L22.491 345.351L22.213 345.274L21.928 345.306L21.648 345.41L21.386 345.552L20.898 345.619L20.405 345.385L19.91 345.064L19.416 344.877L18.881 344.917L18.632 344.836L18.54 344.565L18.615 343.986L18.624 343.706L18.444 342.765L18.598 342.383L18.948 342.279L19.415 342.465L19.688 342.585L21.325 342.906L21.61 342.858L21.834 342.691L21.984 342.487L22.158 342.322L22.456 342.272L22.735 342.329L23.563 342.691L24.073 342.716L25.19 342.204L25.723 342.073L26.215 342.234L27.178 342.922L27.706 343.091L28.175 342.987L28.606 342.666L28.909 342.159L28.997 341.495L28.895 340.887L28.879 340.606L28.95 340.272L29.214 339.724L29.386 339.458L29.516 339.338L29.781 339.327L30.026 339.27L30.219 339.093L30.333 338.727L30.33 338.397L30.232 338.226L30.084 338.087L29.927 337.85L29.838 337.554L29.801 337.294L29.731 337.05L29.547 336.806L29.258 336.626L28.948 336.562L28.31 336.553L26.452 336.177L23.925 336.195L23.296 336.037H22.761L22.233 336.197L21.724 336.206L21.25 335.758L21.206 335.449L21.41 335.259L21.688 335.131L21.867 335.01L21.946 334.687L21.852 334.442L21.701 334.206L21.604 333.92L21.652 333.609L21.918 333.101L21.933 332.803L21.842 332.505L21.453 331.776L21.273 331.133L21.562 330.903L22.048 330.76L22.46 330.385L22.668 330.058L23.599 328.601L23.726 328.258L23.718 328.029L23.03 326.875L22.871 326.662L22.771 326.586L22.538 326.463L22.464 326.359L22.434 326.169L22.477 326.039L22.541 325.921L22.574 325.766L22.549 325.387L22.463 325.345L22.297 325.46L22.031 325.548L21.805 325.439L21.759 325.161L21.83 324.844L21.955 324.615L22.162 324.465L22.68 324.261L22.909 324.127L23.112 323.905L23.18 323.689L23.094 322.71L23.05 322.508L22.934 322.382L22.412 321.996L22.331 321.919L22.256 321.817L22.199 321.713L22.121 321.611L21.987 321.523L21.707 321.488L21.366 321.495L21.087 321.434L20.992 321.189L21.032 321.099L21.272 320.761L21.274 320.75L21.278 320.391L21.149 320.139L20.936 319.983L20.689 319.913L20.563 319.941L20.435 320.008L20.307 320.043L20.183 319.98L20.088 319.817L20.141 319.733L20.248 319.659L20.313 319.531L20.26 319.051L20.261 318.939L20.336 318.787L20.428 318.708L20.525 318.643L20.614 318.533L20.653 318.397L20.675 317.888L20.744 317.759L20.895 317.712L21.208 317.684L21.696 317.445L21.933 317.387L22.477 317.504L22.602 317.308L22.63 316.999L22.616 316.697L22.593 316.559L22.524 316.294L22.516 316.126L22.547 315.974L22.663 315.685L22.696 315.531L22.608 315.233L22.362 315.046L21.233 314.57L19.413 314.354L18.864 314.101L18.352 313.648L17.943 313.037L17.706 312.305L17.785 311.716L18.063 310.622L18.147 310.039L18.041 307.622L17.987 307.357L17.812 306.788L17.792 306.551L17.903 306.15L17.914 306.022L17.876 305.866L17.743 305.628L17.706 305.497L17.77 304.903L18.023 304.449L18.39 304.13L19.016 303.801L19.05 303.637L18.969 303.447L18.607 302.846L18.589 302.672L18.786 301.765L18.673 301.45L18.037 300.835L17.888 300.412L17.999 300.008L18.266 299.635L18.584 299.309L18.808 298.916L18.901 298.466L19.042 298.037L19.412 297.706L19.81 297.716L20.008 298.04L20.172 298.412L20.47 298.571L20.646 298.494L20.753 298.341L20.84 298.168L20.956 298.029L21.109 297.953L21.976 297.797L22.323 297.626L22.614 297.367L22.776 297.028L22.735 296.167L22.682 296.042L22.452 295.761L22.369 295.632L22.229 295.414L22.239 295.18L22.298 294.917L22.306 294.633L22.064 293.447L21.81 292.957L21.511 292.553L21.29 292.104L21.269 291.485L21.141 290.94L20.44 289.91L20.439 289.415L20.613 289.206L21.033 288.954L21.208 288.782L21.334 288.5L21.29 288.313L21.152 288.135L20.997 287.882L20.906 287.603L20.898 287.396L20.99 286.907L21.019 286.59L21.007 286.354L20.952 286.128L20.853 285.84L20.71 285.221L20.731 284.701L21.033 283.618L21.086 283.281L21.054 283.026L20.9 282.482L20.888 282.146L20.987 282.029L21.111 281.933L21.178 281.666L21.218 281.082L21.324 280.498L21.338 280.144L21.162 279.54L21.159 279.378L21.156 279.195L21.356 278.521V278.206L21.252 277.8L21.117 277.512L20.627 276.769L20.497 276.406L20.074 274.661L20.147 274.482L21.085 273.473L21.334 272.975L21.4 272.379L21.361 272.228L21.242 272.052L21.227 271.895L21.265 271.776L21.486 271.349L21.937 269.9L22.032 269.708L22.176 269.656L22.699 269.81L22.859 269.818L22.985 269.683L23.484 268.508L23.539 268.248L23.543 268.081L23.525 267.923L23.475 267.783L23.384 267.675L23.236 267.582L23.153 267.569L22.993 267.639L22.926 267.699L22.904 267.784L22.852 267.837L22.696 267.804L22.605 267.724L22.351 267.331L21.967 266.931L21.794 266.686L21.699 266.411L21.716 266.294L21.824 266.058L21.842 266.001L21.785 265.838L21.788 265.675L21.879 265.183L21.931 265.035L21.955 264.897L21.903 264.774L21.812 264.633L21.818 264.525L21.982 264.312L22.4 264.267L22.954 264.54L23.421 264.623L23.578 264.008L23.551 263.84L23.457 263.499L23.432 263.321L23.461 263.183L23.536 263.102L23.624 263.039L23.688 262.953L24.146 261.924L24.247 261.584L24.191 261.347L24.027 261.161L23.6 260.772L23.475 260.59L23.411 260.36L23.382 260.009L23.32 259.663L23.092 258.983L23.044 258.644L23.113 258.358L23.236 258.067L23.295 257.799L23.024 257.34L22.991 256.998L23.045 256.646L23.155 256.362L23.348 256.12L23.5 256.122L23.947 256.625L24.054 256.746L24.233 256.891L24.443 256.937L24.742 256.859L25.006 256.829L25.231 256.875L25.436 256.864L25.639 256.651L25.736 256.075L25.166 255.544L25.49 255.049L25.665 254.841L25.898 254.408L26.046 254.217L26.154 253.973L25.957 253.469L25.97 253.163L26.166 252.911L26.43 252.733L26.662 252.513L26.762 252.128L26.886 250.825L26.754 248.677L26.528 247.495L26.537 247.069L26.715 246.06L26.91 245.668L27.269 245.312L28.388 244.714L28.708 244.438L28.865 244.213L28.926 244.105L29.025 244.061L29.95 243.903L30.146 243.799L30.862 243.244L31.234 243.079L31.707 243.074L32.233 243.144L32.506 243.089L32.697 242.908L32.871 242.536L32.943 242.445L33.314 242.259L33.382 242.208L33.4 242.053L33.343 241.949L33.269 241.851L33.234 241.721L33.243 241.547L33.264 241.446L33.392 241.205L33.703 240.767L33.828 240.523L33.868 240.208L33.691 239.629L33.308 239.242L32.847 238.927L32.439 238.557L32.153 238.011L31.625 235.501L31.587 235.025L31.61 234.546L31.72 234.023L31.724 233.981L31.72 233.941L31.708 233.897L31.632 233.606L31.547 233.281L31.541 232.995L31.708 232.733L31.739 232.646L31.749 232.559L31.739 232.47L31.708 232.384L31.37 231.932L31.259 231.677L31.19 231.349L31.078 231.023L30.752 230.426L30.662 229.759L30.19 228.841L29.553 226.78L29.464 226.078L29.482 225.754L29.567 225.534L29.708 225.357L29.896 225.171L30.192 224.986L30.256 224.89L30.264 224.707L30.113 224.431L30.086 224.261L30.151 223.958L30.342 223.368L30.381 223.06L30.315 222.7L30.151 222.418L29.759 221.899L29.433 221.155L29.311 220.72L29.299 220.368L29.402 220.093L29.89 219.488L30.027 219.165L30.039 218.865L30.008 218.563L30.012 218.237L30.114 217.905L30.288 217.701L30.731 217.444L30.266 217.045L30.11 216.8L29.998 216.058L29.907 215.892L29.521 215.647L29.278 215.424L29.357 215.41L29.598 215.469L29.84 215.472L30.063 215.318L30.157 215.103L30.102 214.888L29.747 214.648L29.753 214.532L29.813 214.408L29.845 214.292L29.851 214.163L29.876 214.109L29.873 214.044L29.794 213.882L29.697 213.79L29.577 213.741L29.468 213.671L29.404 213.515L29.425 213.375L29.501 213.242L29.589 213.118L29.651 213.002L29.961 212.167L30.019 211.869L29.994 211.3L30.038 211.059L30.227 210.885L30.472 210.91L30.709 211.078L30.927 211.191L31.119 211.05L31.145 210.799L30.965 209.764L30.978 209.191L31.07 208.487L31.293 207.935L31.483 207.886L31.703 207.83L31.953 207.919L32.182 207.952L32.402 207.906L32.626 207.754L32.769 207.512L32.856 206.94L32.96 206.724L33.174 206.651L33.442 206.716L33.931 206.948L34.036 207.021L34.11 207.103L34.198 207.155L35.287 206.867L35.407 206.693L35.411 206.338L35.35 206.158L35.159 205.833L35.121 205.64L35.152 205.506L35.362 205.121L35.375 204.99L35.348 204.865L35.334 204.739L35.388 204.595L35.479 204.507L35.592 204.455L35.824 204.39L35.989 204.27L36.444 203.669L36.502 203.625L36.641 203.559L36.694 203.509L36.731 203.41L36.744 203.213L36.768 203.128L36.889 202.832L36.976 202.725L37.137 202.662L37.42 202.719L37.988 203.037L38.332 203.02L38.574 202.864L38.776 202.621L38.829 202.515L38.928 202.32L39.076 201.82L39.154 201.678L39.368 201.439L39.449 201.245L39.408 201.009L39.051 200.072L39.053 199.896L39.146 199.607L39.213 199.522L39.313 199.44L39.395 199.346L39.409 199.225L39.322 199.113L39.056 199.148L38.952 199.082L38.959 198.544L39.733 197.738L39.681 197.25L39.499 196.921L38.944 195.38L38.929 195.141L39.058 194.589L39.062 194.287L38.987 193.684L39.108 193.059L39.007 192.831L38.827 192.629L38.65 192.378L38.358 191.375L38.326 191.144L38.466 191.018L38.709 190.954L38.859 190.807L38.719 190.431L38.282 190.158L37.723 190.091L37.234 189.921L37.007 189.338L37.45 188.578L39.373 187.937L39.596 186.891L39.548 185.843L39.546 185.802L39.778 184.73L40.725 182.405L40.676 182.227L40.527 182.095L40.346 181.878L40.238 181.616L40.322 181.528L40.523 181.48L40.769 181.338L41.027 180.871L41.147 179.729L41.327 179.219L41.556 178.96L42.065 178.518L42.275 178.216L42.55 177.489L42.723 177.159L43.298 176.67L43.407 176.39L43.398 176.05L43.346 175.614L43.335 175.164L43.42 174.832L43.536 174.717L43.632 174.621L44.261 174.503L44.52 174.517L44.775 174.574L45.217 174.734L45.286 174.677L45.299 174.574L45.33 174.497L46.185 174.119L46.233 173.971L46.129 173.614L45.824 173.031L45.744 172.831L45.687 172.582L45.698 172.448L45.746 172.324L45.801 172.1L45.906 170.966L45.902 170.277L45.781 169.875L45.551 169.823L45.354 169.895L45.24 169.846L45.258 169.434L45.374 168.856L45.391 168.596L45.176 167.443L45.182 167.123L45.277 166.95L45.695 166.612L45.849 166.448L45.853 166.226L45.52 165.743L45.414 165.5L45.432 165.211L45.69 164.373L45.68 164.217L45.639 164.089L45.617 163.959L45.66 163.802L45.734 163.736L45.98 163.641L46.076 163.586L46.117 163.414L46.166 162.728L46.206 162.486L46.333 162.261L46.654 161.845L46.749 161.618L46.738 161.326L46.516 160.808L46.415 160.001L46.133 159.651L45.729 159.414L45.291 159.247L44.857 159.315L44.324 160.074L44.002 160.142L43.619 159.257L43.488 159.056L43.071 158.703L42.885 158.49L42.779 158.236L42.775 157.94L42.991 157.093L42.95 156.793L42.829 156.552L42.819 156.518L42.756 156.31L42.857 156.014L43.03 155.867L43.429 155.765L43.601 155.638L43.702 155.408L43.825 154.79L43.913 154.523L44.122 154.119L44.121 153.937L43.947 153.804L43.671 153.69L43.455 153.558L43.05 153.155L42.401 152.35L42.208 151.913L41.904 150.331L41.896 150L41.925 149.728L41.96 149.604L42.025 149.491L42.314 149.482L42.429 149.437L42.181 149.049L42.158 148.797L42.178 148.524L42.145 148.215L42.002 147.918L41.805 147.752L41.328 147.476L41.106 147.029L41.142 145.956L40.973 145.723L40.812 145.502L40.525 145.385L40.313 145.346L40.164 145.227L40.066 144.869L40.065 144.743L40.1 144.48L40.096 144.348L40.052 144.201L40.046 144.181L39.901 143.871L39.871 143.694L39.891 143.563L39.978 143.323L39.998 143.189L39.952 143.093L39.747 142.937L39.694 142.797L39.702 142.516L39.678 142.402L39.594 142.274L39.39 142.055L39.335 141.926L39.355 141.761L39.529 141.597L39.787 141.64L40.307 141.849L40.619 141.836L40.733 141.705L40.834 141.17L40.951 140.956L41.075 140.788L41.148 140.598L41.114 140.319L40.976 140.079L40.738 139.808L40.477 139.576L40.267 139.447L39.727 139.366L39.275 139.382L38.853 139.273L38.412 138.812L38.276 138.549L38.168 138.224L38.113 137.88L38.14 137.262L38.011 137.021L37.636 136.583L36.983 135.254L36.866 134.899L36.846 134.638L36.969 134.004L37.012 133.473L36.999 132.941L37.043 132.667L37.259 132.217L37.298 131.946L37.233 131.639L37.143 131.371L37.121 131.1L37.394 130.529L37.442 130.273L37.436 129.717L37.46 129.43L37.527 129.206L38.217 128.116L38.365 128.011L38.607 128.13L38.699 128.435L38.76 128.759L38.91 128.937L39.091 128.884L39.283 128.706L39.433 128.476L39.538 128.053L39.66 127.778L39.939 127.328L40.171 127.212L40.696 127.295L40.841 127.252L40.828 127.071L40.677 126.877L40.324 126.56L40.121 126.323L39.997 126.099L39.948 125.842L40.191 123.873L40.369 123.367L40.43 123.262L40.649 122.971L40.724 122.796L40.719 122.654L40.685 122.511L40.679 122.332L40.727 122.045L40.798 121.819L41.037 121.38L41.226 120.881L41.451 119.788L41.699 119.384L41.912 119.245L42.108 119.146L42.263 118.997L42.352 118.709L42.293 118.411L41.985 117.891L41.989 117.64L42.315 117.487L43.332 117.991L43.751 118.103L44.191 117.975L44.558 117.785L44.885 117.511L45.203 117.14L45.318 116.9L45.354 116.639L45.376 116.1L45.426 115.836L45.466 115.706L45.521 115.593L45.634 115.481L45.876 115.372L45.98 115.281L46.142 114.752L45.97 114.251L45.589 113.869L45.122 113.699L44.642 113.769L44.45 113.722L44.362 113.481L44.421 113.284L44.843 112.636L45.007 112.121L45.078 111.593L45.159 109.693L44.993 108.455L44.99 108.449L44.885 108.263L44.57 107.991L44.451 107.716L44.454 107.391L44.504 106.965L44.509 106.544L44.224 105.198L44.168 105.033L44.094 104.88L43.998 104.746L43.881 104.016L43.79 103.812L43.682 103.628L43.597 103.433L43.574 103.194L43.621 102.508L43.738 102.221L43.998 102.069L44.123 102.02L44.252 101.941L44.363 101.838L44.432 101.708L44.415 101.604L44.268 101.415L44.251 101.336L44.306 101.25L44.367 101.215L44.429 101.193L44.622 101.021L44.951 100.807L45.082 100.682L45.164 100.515L45.171 100.412L45.217 100.333L45.419 100.249L46.036 100.137L46.307 100.007L46.533 99.706L46.615 99.396L46.633 99.022L46.56 98.317L46.503 98.038L46.499 97.753L46.546 97.473L46.641 97.204L46.76 96.993L46.911 96.809L46.983 96.69L46.994 96.572L46.989 96.456L47.014 96.33L47.371 95.681L47.409 95.427L47.365 95.119L47.184 94.521L47.124 94.211L47.155 93.73L47.309 93.271L47.54 92.851L47.801 92.483L47.895 92.418L47.994 92.39L48.077 92.335L48.121 92.184L48.151 90.708L48.376 89.915L48.388 89.871L48.95 89.29L49.612 88.753L50.146 88.05L50.255 87.81L50.387 87.084L50.563 86.938L50.81 87.048L51.061 87.225L51.25 87.283L51.354 87.142L51.625 86.577L51.904 86.136L52.351 85.049L52.586 84.827L52.596 84.726L52.561 84.634L52.569 84.52L52.69 84.311L52.84 84.17L53.036 84.079L53.765 83.879L54.081 83.64L54.292 83.26L54.771 81.149L54.891 80.622L54.966 80.451L55.088 80.363L55.423 80.196L55.488 80.09L55.436 79.886L55.344 79.715L55.273 79.538L55.284 79.311L55.368 79.16L55.645 78.892L55.757 78.748L56.068 78.077L56.186 77.703L56.22 77.368L56.176 77.184L56.168 76.996L56.206 76.817L56.295 76.657L56.499 76.502L56.929 76.271L57.126 76.102L57.264 75.913L57.859 74.524L57.905 74.296L57.88 73.75L57.9 73.507L58.01 73.188L58.523 72.325L58.704 72.108L58.867 72.004L59.32 71.891L59.882 71.92L60.322 72.2L60.733 72.536L61.21 72.736L61.516 72.696L61.645 72.51L61.721 72.236L61.866 71.93L62.083 71.694L62.351 71.508L62.643 71.394L63.272 71.367L63.529 71.303L64.08 71.06L64.214 71.047L64.567 71.076L64.657 71.067L64.682 70.963L64.648 70.615L64.673 70.448L64.738 70.184L64.94 69.682L65.005 69.434L64.965 69.039L64.783 68.654L62.445 65.333L62.027 64.785L61.708 64.253L61.496 63.67L61.399 62.97L61.416 61.89L61.497 61.332L61.647 60.858L62.004 60.386L63.557 59.154L63.69 58.674L63.591 57.98L62.738 54.463L62.589 53.347L62.477 52.991L62.301 52.673L62.062 52.423L61.84 52.091L61.82 51.712L61.837 51.348L61.724 51.065L61.894 50.858L61.752 50.573L61.305 50.014L61.239 49.772L61.218 49.517L61.267 49.01L61.904 47.025L62.374 45.561L62.615 45.24L62.657 45.184L62.891 45.042L63.084 45.035L63.286 45.079L63.547 45.087L63.812 45.034L64.058 44.924L64.212 44.743L64.203 44.471L63.937 44.12L63.549 43.762L63.265 43.354L63.307 42.846L63.341 42.716L63.311 42.628L63.248 42.547L63.186 42.443L63.138 42.38L62.999 42.273L62.951 42.21L62.944 42.146L62.957 42.077L62.979 42.025L62.993 42.011L62.903 41.819L62.826 41.705L62.695 41.655L62.446 41.651L62.355 41.577L62.06 41.406L61.944 41.288L61.893 41.198L61.612 40.474L61.605 40.243L61.681 39.947L62.309 38.666L62.446 38.206L62.473 38.01L62.526 37.814L62.626 37.671L62.795 37.63L63.029 37.962L63.168 38.043L63.256 37.784L63.338 37.372L63.831 36.301L64.05 36.174L64.264 36.216L64.479 36.292L64.702 36.271L64.859 36.123L65.317 35.38L65.437 35L65.495 34.899L65.716 34.745L66.127 34.571L66.745 34.31L67.362 34.049L67.979 33.787L68.597 33.526L70.135 32.836L71.673 32.146L73.211 31.455L74.748 30.767L74.86 30.722L75.105 30.627L75.351 30.531L75.462 30.486L75.953 30.297L76.567 29.957L76.845 29.556L77.111 28.675L77.522 27.315L77.933 25.956L77.975 25.817L78.839 22.964L79.703 20.115L80.566 17.272L80.784 16.557L80.853 16.14L78.639 13.756L79.269 12.696L79.631 12.26L80.561 11.52L80.697 11.317L80.725 11.026L80.622 9.787L80.832 9.777L81.104 9.803L81.293 9.759L81.452 9.65L81.571 9.468L81.82 9.2L82.148 9.027L83.528 8.592L83.668 8.496L83.676 8.358L83.602 7.973L83.633 7.863L83.791 7.665L83.88 7.364L84.026 6.376L84.115 6.065L84.275 5.801L84.559 5.554L84.726 5.478L84.86 5.49L84.996 5.535L85.237 5.565L85.439 5.634L85.501 5.618L85.539 5.533L85.572 5.433L85.619 5.37L87.051 4.976L88.685 4.5L88.983 4.268L89.033 4.143L89.109 4.014L89.204 3.906L89.309 3.84L89.464 3.819L89.516 3.851L89.543 3.836L89.618 3.676L89.671 3.481L89.789 2.242L90.374 0.0610008L90.625 0L91.666 0.337999L92.199 0.608999L92.579 1.021L92.725 1.665L92.789 1.736L93.921 1.936L94.189 2.088L95.765 3.963L96.125 4.218L96.503 4.337L98.217 4.138L98.308 4.093L98.363 4.033L98.423 3.982L98.529 3.971L99.383 4.096L100.037 4.17L103.32 4.131L105.413 4.106L107.725 4.649L108.588 5.139L109.073 5.257L109.186 5.236L109.413 5.136L109.509 5.118L109.612 5.152L109.874 5.192L110.109 5.368L110.385 5.508L110.632 5.566L110.747 5.648L111.075 6.052L111.178 6.21L111.29 6.482L111.296 6.695L111.211 6.879L111.052 7.071L110.93 7.382L111.092 7.614L111.35 7.795L111.514 7.942L111.53 8.086L111.434 8.343L111.431 8.478L111.5 8.576L111.721 8.722L111.767 8.802L111.84 9.106L112.017 9.351L112.699 10.032L112.68 10.229L112.589 10.365L112.487 10.483L112.439 10.628L112.426 10.762L112.367 11.022L112.354 11.174L112.385 11.372L112.465 11.449L112.576 11.492L112.698 11.587L113.025 12.298L113.16 12.407L113.428 12.53L113.591 12.826L113.633 13.189L113.539 13.508L113.69 13.694L113.737 14.318L113.966 14.428L113.946 14.258L114.235 13.232L114.344 12.973L114.352 12.012L114.883 10.011L115.061 9.692L115.696 9.087L115.993 8.651L116.907 6.249L116.998 6.152L117.245 6.016L117.341 5.868L117.725 4.888L117.914 4.143L118.022 3.926L118.087 3.878L118.172 3.852L118.266 3.805L118.361 3.708L118.404 3.602L118.449 3.344L118.567 3.046L118.573 2.968L118.614 2.926L118.791 2.849L119.12 2.787L120.268 2.865L120.515 2.977L121.022 3.431L121.162 3.495L121.734 2.983L121.932 2.872L122.405 2.79L126.274 2.812L130.143 2.834L130.149 2.833L131.969 2.734L132.504 2.836L132.679 2.878L132.716 3.003L132.794 3.504L132.793 3.636L132.759 3.746L132.842 3.908L132.844 4.328L132.936 4.563L133.11 4.747L133.692 5.033L134.218 5.412L134.364 5.568L134.416 5.688L134.433 5.807L134.468 5.902L134.574 5.939L134.697 5.962L134.802 6.022L134.888 6.109L134.952 6.212H134.868L134.944 6.391L134.896 6.53L134.815 6.647L134.792 6.757L134.883 6.878L135.032 6.963L135.199 7.012L135.338 7.029L135.628 7.103L135.838 7.28L136.136 7.673L136.292 7.743L136.786 7.898L136.892 7.99L136.978 8.191L137.186 8.401L138.045 8.997L138.285 9.089L138.376 9.101L138.814 9.16L138.952 9.201L139.042 9.256L139.075 9.319L139.086 9.387L139.083 9.534L139.113 9.63L139.184 9.649L139.267 9.642L139.334 9.661L139.607 9.98L139.705 10.218L139.636 10.441L139.462 10.682L139.464 10.849L139.625 10.984L139.93 11.124L140.083 11.163L140.156 11.153L140.2 11.177L140.266 11.315L140.18 11.608L140.175 11.782L140.41 11.932L140.258 12.245L140.308 12.317L140.473 12.365L140.556 12.48L140.609 12.63L140.686 12.772L141.022 13.144L141.066 13.243L141.1 13.363L141.148 13.465L141.235 13.508L141.247 13.555L141.353 13.652L141.474 13.735L141.533 13.738L141.579 13.901L141.692 14.056L141.953 14.331L142.133 14.603L142.363 15.096L142.5 15.298L142.528 15.425L142.464 15.737L142.5 15.799L142.502 15.86L142.672 16.117L143.11 16.602L144.481 17.442L144.58 17.541L144.859 17.949L145.002 18.08L145.28 18.239L145.412 18.355L145.545 18.514L145.621 18.643L145.655 18.801L145.663 19.049L145.719 19.283L145.858 19.398L146.036 19.477L146.21 19.599L146.403 19.815L146.507 19.879L146.673 19.928H147.254L147.432 20.014L148.054 20.672L148.163 20.729L148.308 20.755L148.528 20.761L148.47 20.872L148.413 21.026L148.402 21.16L148.599 21.289L148.713 21.604L148.826 21.676L149.091 21.689L149.317 21.733L149.517 21.818L149.704 21.951L149.849 22.084L149.973 22.171L150.143 22.22L150.427 22.234L151.225 22.592L151.323 22.763L151.397 22.975L151.524 23.158L151.778 23.234L151.889 23.285L152.127 23.529L152.24 23.608L152.323 23.613L152.568 23.595L152.66 23.608L152.813 23.734L152.977 23.919L153.161 24.086L153.373 24.16L153.525 24.278L153.569 24.55L153.526 24.855L153.414 25.076L153.527 25.2L153.738 25.553L154.062 25.739L154.262 25.994L154.409 26.272L154.431 26.453L154.505 26.531L154.682 26.828L154.798 26.946L155.186 27.196L155.656 27.058L156.108 27.282L156.521 27.624L156.874 27.838L157.13 27.868L157.488 27.859L158.208 27.841L158.324 27.88L158.575 28.098L158.695 28.13L159.26 28.099L159.402 28.111L159.537 28.158L159.75 28.278L159.863 28.303L159.876 28.379L160.073 28.809L160.144 28.834L160.584 28.855L160.808 28.965L161.212 29.256L161.973 29.406L162.411 29.388L162.523 29.406L162.656 29.489L162.896 29.706L163.027 29.781L163.142 29.802L163.531 29.781L164.494 29.928L165.415 29.899L165.71 29.832L166.287 29.625L166.541 29.598L166.763 29.654L171.193 32.598L171.664 33.085L171.881 33.382L171.97 33.464L172.093 33.509L172.402 33.549L172.611 33.677L172.838 33.723L172.936 33.794L173.07 33.942L173.202 34.045L173.482 34.208L173.75 34.327L173.826 34.394L173.868 34.487L173.899 34.61L173.942 34.716L174.24 34.853L174.719 35.276L174.834 35.407L175.085 35.886L175.287 36.138L175.692 36.289L175.852 36.48L175.968 36.523L176.154 36.551L176.244 36.622L176.311 36.713L176.429 36.808L176.941 36.984L177.293 37.234L177.582 37.336L178.042 37.641L178.285 37.731L178.517 37.734L178.593 37.749L178.713 37.825L178.96 38.071L179.08 38.159L179.471 38.256L181.83 40.052L182.085 40.118L182.713 40.133L182.888 40.186L182.978 40.256L183.075 40.3L183.151 40.357L183.182 40.465L183.246 40.529L185.963 41.061L186.241 41.203L186.392 41.353L186.684 41.764L187.474 42.653L187.55 42.785L187.588 42.892L187.654 42.969L187.81 43.015L187.949 42.993L188.105 42.913L188.253 42.805L188.599 42.442L188.804 42.289L189.031 42.282L190.14 43.051L190.261 43.256L190.415 43.248L191.269 43.683L191.391 43.693L191.666 43.658L191.781 43.683L191.865 43.797L191.911 43.951L191.986 44.089L192.158 44.146L193.133 44.149L193.376 44.239L193.551 44.395L194.093 45.033L194.279 45.172L194.664 45.362L194.811 45.539L195.208 46.426L195.447 46.763L195.82 47.02L195.826 47.024L196.199 47.982L196.204 48.147L196.968 48.748L197.133 48.934L197.221 49.113L197.236 49.335L197.075 50.519L197.01 50.761L196.864 50.915L196.697 50.957L196.562 51.054L196.505 51.371L196.422 51.456L196.229 51.462L195.868 51.414L195.844 51.477L195.78 51.782L195.734 51.888L195.619 51.966L195.498 51.979L195.369 51.969L195.231 51.982L194.968 52.092L194.815 52.24L194.558 52.635L194.633 52.748L194.73 52.826L194.846 52.88L194.978 52.915L194.846 53.089L194.639 53.305L194.401 53.489L194.175 53.568L193.99 53.682L194.034 53.945L194.221 54.408L194.086 54.597L194.002 54.659L193.835 54.782L193.577 54.92L193.317 55.019L193.282 55.115L193.317 55.211L193.599 55.317L193.612 55.46L193.541 55.617L193.465 55.723L193.035 56.078L192.941 56.285L193.51 56.453L193.509 56.636L193.349 56.855L191.928 57.926L191.517 58.161L190.718 58.456L190.593 58.586L190.475 59.046L190.365 59.329L190.257 59.479L190.213 59.38L190.144 59.302L190.046 59.244L189.921 59.199L189.95 59.444L190.095 59.583L190.291 59.682L190.471 59.811L190.479 59.995L190.266 60.159L189.987 60.277L189.792 60.321L189.692 60.417L189.691 60.64L189.753 61.08L189.72 61.306L189.658 61.502L189.246 62.236L189.161 62.455L189.204 62.628L189.502 62.909L189.462 63.051L189.289 63.182L189.25 63.29L189.216 63.53L189.149 63.743L189.11 63.952L189.159 64.185L189.225 64.263L189.503 64.466L189.578 64.571L189.686 64.766L189.755 64.841L189.674 64.928L189.465 65.082L189.419 65.125L189.422 65.287L189.482 65.411L189.553 65.521L189.587 65.646L189.523 65.73L189.377 65.74L188.99 65.665L188.927 65.618L188.887 65.635L188.824 65.792L188.768 66.054L188.734 67.127L188.687 67.197L188.595 67.214L188.446 67.211L188.243 67.271L188.26 67.411L188.359 67.569L188.404 67.681L188.235 67.862L188.027 67.829L187.808 67.756L187.603 67.822L187.451 68.124L187.598 68.316L187.822 68.486L187.9 68.726L187.739 68.864L187.176 68.911L187.053 69.042L186.94 69.216L186.674 69.324L186.129 69.471L185.936 69.607L185.835 69.781L185.86 69.964L186.044 70.131L185.947 70.326L185.728 70.597L185.617 70.79L185.574 70.898L185.551 70.994L185.541 71.224L185.492 71.294L185.39 71.271L185.387 71.269L185.301 71.211L185.289 71.177V71.123L185.258 71.023L185.19 70.963L185.187 70.965L185.074 71.03L184.997 71.128L184.939 71.229L184.898 71.338L184.868 71.459L184.865 71.708L184.888 71.921L184.827 72.065L184.204 72.174L183.925 72.341L183.747 72.623L183.684 73.022L183.758 73.201L183.926 73.368L184.23 73.597L184.383 73.86L184.403 74.143L184.351 74.827L184.35 74.837L184.4 74.791L185.5 74.313L188.853 74.017L190.199 74.191L190.381 74.181L191.125 74.044L191.512 74.055H191.513L191.738 74.103L192.468 74.259L192.472 74.26L192.849 74.422L193.02 74.459L193.566 74.577L193.57 74.578L194.097 74.758L194.101 74.759L195.359 75.024L195.497 75.074L195.502 75.076L197.497 76.097L197.691 76.165L197.772 76.193L198.088 76.224L199.33 76.045L199.654 76.044L199.702 76.057L199.963 76.128L200.073 76.202L200.272 76.401L200.36 76.489L200.489 76.561L200.605 76.593L201.164 76.747L201.17 76.749L201.293 76.811L201.621 77.092L201.734 77.165L201.866 77.207L201.87 77.208L202.158 77.214L202.263 77.231L202.745 77.254L203.148 77.162L204.365 76.487L204.812 76.304L205.261 76.257H205.262L205.694 76.435L206.454 77.202L206.896 77.476L206.9 77.479L207.354 77.392L207.983 76.896L208.538 76.733L208.846 76.643L209.659 76.762L209.665 76.763L210.16 77.388L210.392 77.764L210.71 78.134L211.081 78.432L211.463 78.588L211.47 78.591L211.866 78.505L212.086 78.168L212.254 77.742L212.494 77.392L212.734 77.121L212.878 76.844L212.925 76.535L212.878 76.157L212.945 75.856L213.229 75.698L213.583 75.601L213.861 75.475L214.311 74.957L214.544 74.778L214.857 74.599L215.172 74.622L215.476 74.681L215.482 74.682L216.305 75.005L216.576 75.061L216.807 75.053L216.874 75.051L217.173 75.005L217.459 74.999L217.708 75.096L217.892 75.355L218.077 75.875L218.183 76.015L218.331 76.101L218.662 76.194L219.405 76.604L219.863 76.239L220.303 75.713L220.649 75.445L220.955 75.394L221.216 75.244L221.415 75.006L221.534 74.69L221.545 74.498L221.515 74.385L221.505 74.292L221.669 74.01L221.694 73.865L221.671 73.718L221.618 73.555L221.321 72.989L221.33 72.78L221.656 72.697L221.858 72.59L221.93 72.341L221.981 72.057L222.123 71.839L222.367 71.812L222.707 71.848L223.009 71.819L223.139 71.599L223.169 70.961L223.244 70.68L223.39 70.416L223.597 70.188L223.814 70.042L224.061 69.966L224.637 69.892L225.237 69.558L225.533 69.562L225.796 69.668L226.024 69.792L226.214 69.85L226.702 69.876L226.987 69.826L227.184 69.661L227.226 69.362L227.056 68.819L227.141 68.584L227.939 67.779L228.187 67.686L228.789 67.633L228.992 67.539L229.168 67.325L229.289 67.121L229.378 66.879L229.54 66.245L229.673 65.972L229.877 65.776L230.172 65.701H230.718L230.811 65.752L230.868 65.823L230.936 65.857L231.063 65.794L231.235 65.571L231.335 65.265L231.38 64.926L231.392 64.61L231.353 64.356L231.288 64.161L231.275 63.968L231.392 63.719L231.577 63.494L231.923 63.207L232.301 62.775L232.409 62.588L232.466 62.365L232.585 61.526L232.621 61.449L232.638 61.375L232.827 60.942V60.324L232.796 60.055L232.81 59.989L232.818 59.953L232.918 59.772L233.06 59.569L233.139 59.414L233.095 59.237L232.872 58.968L232.824 58.76L233.078 57.884L233.086 57.577L232.953 57.138L232.892 56.722L232.851 56.579L232.843 56.442L232.918 56.295L233.019 56.247L233.317 56.229L233.421 56.194L233.53 55.988L233.518 55.732L233.421 55.116L233.485 54.893L233.619 54.677L233.738 54.434L233.758 54.132L233.677 53.967L233.399 53.622L233.339 53.437L233.304 53.167L233.08 52.453L233.083 52.093L233.196 51.963L233.629 51.987L233.815 51.864L233.779 51.589L233.583 51.149L233.608 50.91L234.102 50.846L234.279 50.908L234.348 51.072L234.364 51.271L234.443 51.398L234.7 51.337L234.95 51.444L235.172 51.605L235.325 51.826L235.369 52.114L235.375 52.244L235.412 52.388L235.488 52.47L235.611 52.416L235.663 52.297L235.606 52.008L235.61 51.867L235.685 51.756L235.914 51.625L236.008 51.523L236.036 51.393L236.025 51.255L236.035 51.12L236.127 50.994L236.24 50.941L236.344 50.948L236.561 51.038L236.689 51.013L236.893 50.734L237.033 50.641L237.309 50.607L237.491 50.663L237.623 50.826L237.752 51.116L237.845 51.234L237.919 51.159L237.992 50.945L238.098 50.934L238.174 50.938L238.408 51.009L238.65 50.989L238.595 50.751L238.348 50.317L238.445 50.269L238.571 50.291L238.805 50.376L238.96 50.356L239.093 50.273L239.414 49.895L239.489 49.836L239.559 49.814L239.62 49.832L239.673 49.895L239.615 50.151L239.513 50.371L239.442 50.597L239.477 50.866L239.544 50.986L239.651 51.118L239.775 51.212L239.889 51.215L239.937 51.122L239.928 50.975L239.9 50.818L239.894 50.688L239.975 50.568L240.101 50.64L240.312 50.85L240.465 50.819L240.541 50.766L240.622 50.734L240.791 50.773L241.026 50.908L241.179 51.104L241.262 51.345L241.288 51.626L241.392 51.976L241.634 51.941L242.103 51.649L242.249 51.789L242.379 52.087L242.515 52.586L242.493 52.699L242.441 52.799L242.404 52.923L242.429 53.101L242.508 53.245L242.745 53.478L242.849 53.611L242.96 53.864L242.998 54.107L242.945 54.907L243.093 55.641L243.081 55.782L243.04 55.901L243.014 56.03L243.046 56.201L243.135 56.344L243.545 56.723L243.547 56.724V56.725L243.888 57.101L244.03 57.52L244.113 57.972L244.278 58.448L244.872 59.288L245.098 59.72L245.162 60.277L245.018 60.727L244.494 61.47L244.388 61.873L244.532 63.158L244.53 63.58V63.583L244.351 63.732L244.263 63.827L244.227 63.924L244.25 64.059L244.296 64.203L244.341 64.29L244.358 64.245L244.324 64.482L244.167 64.96L244.16 65.216L244.222 65.738L244.202 65.993L244.122 66.245L244.027 66.323L243.905 66.34L243.805 66.38L243.773 66.527L243.83 66.696L243.935 66.781L244.041 66.824L244.098 66.868L244.105 67.005L244.024 67.199L244.036 67.339L244.076 67.362L244.225 67.373L244.269 67.396L244.412 67.906L244.556 68.725L244.534 69.148L244.385 69.644L243.845 70.798L243.787 70.882L243.702 70.932L243.508 70.961L243.445 71.005L243.395 71.186L243.417 71.579L243.397 71.769L243.337 71.86L243.158 71.976L243.104 72.046L243.11 72.147L243.227 72.281L243.221 72.395L243.088 72.631L242.941 72.724L242.858 72.641L242.746 72.412L242.612 72.203L242.447 72.12L242.341 72.22L242.235 72.653L242.111 72.789L241.915 72.757L241.754 72.611L241.602 72.505L241.439 72.591L241.413 72.774L241.477 72.961L241.468 73.108L241.226 73.167L241.14 73.141L241.088 73.09L241.031 73.051L240.934 73.064L240.864 73.144L240.775 73.397L239.869 74.405L239.421 74.457L239.054 74.327L239.08 74.025L238.971 73.928L238.82 73.828L238.666 74.07L238.314 75.017L238.26 75.121L238.194 75.207L238.146 75.324L238.173 75.608L238.147 75.727L238.054 75.773L237.913 75.792L237.783 75.841L237.727 75.97L237.693 76.086L237.615 76.221L237.529 76.336L237.468 76.392L237.221 76.399L237.042 76.269L236.888 76.083L236.719 75.92L236.739 76.367L236.719 76.496L236.638 76.641L236.525 76.741L236.425 76.754L236.383 76.634L236.337 76.314L236.212 76.154L236.023 76.103L235.527 76.124L235.327 76.174L235.281 76.323L235.489 76.634L235.48 76.816L235.231 76.974L234.432 77.212L234.312 77.206L234.182 77.15L234.135 77.078L234.017 76.826L233.976 76.771L233.877 76.751L233.812 76.721L233.743 76.728L233.632 76.818L233.548 76.941L233.493 77.087L233.426 77.339L233.295 77.597L233.128 77.756L232.984 77.743L232.923 77.485L232.883 77.423L232.797 77.437L232.71 77.519L232.671 77.67L232.674 77.859L232.665 77.964L232.617 78.029L232.504 78.096L232.389 78.12L232.115 78.091L231.993 78.095L231.476 78.269L231.397 78.246L231.38 78.217L231.302 78.117L231.278 78.096L231.232 78.067L231.252 77.998L231.296 77.919L231.321 77.859L231.251 77.706L231.093 77.751L230.923 77.887L230.817 78.01L230.741 78.291L230.7 78.64L230.601 78.937L230.351 79.062L230.051 79.059L229.947 79.101L229.969 79.622L229.906 80.224L229.841 80.539L229.764 80.675L229.521 80.771L228.879 81.347L228.585 81.39L228.358 81.315L228.148 81.204L227.906 81.148L227.699 81.249L227.821 81.473L228.2 81.822L228.38 82.109L228.333 82.256H228.134L227.864 82.098L227.739 82.154L227.468 82.16L227.36 82.202L227.327 82.288L227.23 82.676L226.978 82.618L226.71 82.361L226.512 82.296L226.264 82.394L226.085 82.624L225.941 82.856L225.496 83.21L225.375 83.255L225.243 83.229L224.985 83.137L224.833 83.151L224.639 83.334L224.6 83.592L224.54 83.822L224.282 83.921L224.156 83.928L224.066 83.961L224.011 84.031L223.993 84.158L224.005 84.456L223.981 84.532L223.902 84.672L223.345 85.32L223.275 85.434L222.978 85.52L222.847 85.537L222.763 85.492L222.711 85.408L222.632 85.363L222.472 85.432L222.423 85.503L222.296 85.822L222.24 85.875L222.079 85.996L222.007 86.064L221.951 86.177L221.933 86.284L221.887 86.363L221.747 86.393L221.597 86.345L221.57 86.234L221.58 86.11L221.542 86.021L221.258 85.963L221.112 86.139L221.033 86.345L221.023 86.371L220.916 86.489L220.8 86.568L220.282 87.069L219.496 87.342L219.193 87.569L219.266 87.927L219.413 88.04L219.904 88.267L220.067 88.31L220.242 88.381L220.365 88.546L220.532 88.891L220.363 89.553L220.281 89.751L220.156 89.92L220.015 90.025L219.901 89.98L219.853 89.701L219.659 89.441L219.209 89.324L218.7 89.263L218.333 89.168L217.779 89.405L217.555 89.61L217.619 89.896L217.665 90.013L217.662 90.665L217.648 90.766L217.599 90.828L217.493 90.903L217.389 90.943L216.989 90.989L216.65 91.164L216.251 91.267L216.13 91.461L216.111 91.711L216.141 91.963L216.124 92.516L215.891 92.842L215.126 93.39L214.121 94.738L213.706 95.018L213.127 95.128L212.873 95.243L212.766 95.462L212.69 96.665L212.418 97.157L211.575 97.66L211.337 98.209L211.325 98.779L211.278 99.054L211.128 99.314L210.927 99.43L210.078 99.65L209.648 99.879L209.206 100.193L208.799 100.596L208.474 101.093L208.388 101.275L208.319 101.478L208.307 101.682L208.391 101.871L208.266 102.147L208.064 102.746L207.921 102.975L207.714 103.175L207.558 103.284L207.122 103.509L207.009 103.586L206.92 103.674L206.848 103.778L206.786 103.903L206.765 104.046L206.771 104.204L206.754 104.334L206.552 104.449L206.457 104.601L206.391 104.776L206.366 104.916L206.316 105.029L205.353 105.887L205.266 106.084L205.167 106.208L204.685 106.603L204.511 106.809L204.344 107.292L203.982 107.683L203.923 107.832L203.833 107.977L202.932 108.949L202.702 109.148L202.45 109.235L201.908 109.245L201.389 109.323L200.861 109.525L200.505 109.844L200.296 110.317L200.17 111.978L200.091 112.198L199.029 113.031L197.864 114.52L197.342 114.886L197.095 114.979L196.565 115.07L196.291 115.079L196.187 115.214L196.242 115.527L196.417 116.139L196.327 116.694L196.061 117.151L193.639 119.379L193.301 119.801L193.145 120.315L193.194 120.873L193.471 121.427L193.653 121.703L193.928 122.3L194.03 122.619L194.143 123.124L194.227 123.496L194.257 123.756L194.298 124.11L194.311 124.708L194.297 124.858L194.226 125.203L194.16 125.419L194.007 125.477L193.722 125.443L193.199 125.581L192.97 125.737L192.875 125.991L192.952 126.156L193.471 126.923L193.57 127.594L193.342 128.084L193.031 128.564L192.875 129.198L192.958 129.837L192.957 130.21L192.837 130.375L192.581 130.919L192.49 131.013L192.287 131.174L192.202 131.269L192.089 131.565L192.028 132.219L191.909 132.49L191.716 132.658L191.253 132.941L191.019 133.138L190.863 133.584L191.164 133.954L191.309 134.067L191.625 134.312L191.951 134.724L192.04 135.369L191.926 136L191.185 138.232L191.057 138.44L190.759 138.56L190.176 138.677L189.905 138.795L189.711 138.94L189.374 139.325L189.293 139.623L189.444 139.915L189.832 140.359L189.952 140.813L189.998 141.432L189.961 142.085L189.832 142.646L189.561 143.095L189.491 143.392L189.63 143.7L190.471 144.83L190.599 145.254L190.537 145.696L189.757 146.834L189.449 147.482L189.329 147.64L189.324 147.675L189.32 147.637L189.078 148.292L189.044 148.945L189.182 150.742L189.411 151.744L189.579 153.243L189.698 153.535L190.024 154.074L190.091 154.298L190.049 154.574L189.865 155.141L189.823 155.463L189.951 156.127L189.979 156.494L189.869 156.658L189.411 157.057L189.27 157.11L188.972 157.158H188.815L187.071 156.869L186.631 157.058L186.575 157.132L186.493 157.268L186.471 157.4L186.707 157.505L186.708 157.617L186.661 157.765L186.631 157.914L186.6 158.233L186.471 158.89L186.455 159.174L186.654 159.809L186.712 160.144L186.589 160.288L186.371 160.407L186.126 160.681L185.783 161.194L185.554 161.729L185.367 162.37L185.242 163.028L185.195 163.619L185.279 164.285L185.252 164.432L185.131 164.728L185.026 165.823L185.028 166.153L185.133 166.743L185.334 167.225L186.01 168.183L186.113 168.435L186.181 168.724L186.224 169.399L186.38 170.216L186.351 170.368L186.29 170.538L186.286 170.62L186.283 170.673L186.417 170.731L186.531 170.758L186.83 170.903L186.92 170.98L187.013 171.207L187.055 171.502L187.043 172.151L186.969 172.626L186.958 172.805L186.984 172.887L187.1 173.148L187.127 173.313L186.714 173.766L186.662 173.875L186.598 174.082L186.545 174.183L186.357 174.399L186.122 174.573L185.877 174.641L185.653 174.542L185.554 174.515L185.103 174.496L185.026 174.57L184.983 174.672L184.915 174.76L184.766 174.801L185.481 175.211L185.698 175.403L186.042 175.693L186.19 175.964L185.961 176.441L185.81 176.574L185.673 176.737L185.493 177L185.506 177.195L185.594 177.406L185.913 177.708L185.957 177.834L185.941 178.135L185.95 178.278L186.228 178.461L186.452 178.583L186.706 178.78L187.124 179.039L187.314 179.242L187.54 179.567L187.702 179.928L187.909 180.305L188.88 180.957L189.446 181.471L189.88 181.699L190.33 181.747L190.63 181.809L191.004 182.036L191.409 182.128L191.784 182.25L192.217 182.808L192.547 182.945L193.238 182.873L193.373 182.889L193.613 183.161L194.168 183.525L194.753 184.085L195.639 184.448L196.663 185.256L197.666 185.638L198.091 186.107L198.593 186.5L199.788 187.693L200.227 188.283L200.764 188.895L201.029 189.182L201.61 190.107L202.094 191.036L202.446 191.714L202.513 192.086L202.307 192.734L201.87 193.306L201.337 194.02L200.109 195.944L199.752 196.416L199.592 196.965L199.521 197.363L199.4 197.992L199.252 198.471L199.373 199.027L199.495 199.633L199.508 200.072L199.531 200.203L199.582 200.369L199.809 200.569L199.86 200.723L199.883 200.765L200.203 201.611L200.244 201.934L200.291 202.073L200.509 202.185L200.746 202.435L200.792 202.499L200.864 202.839L201.04 203.147L202.76 204.855L204.024 205.639L204.58 205.755L204.858 205.9L204.969 206.098L204.756 206.317L204.84 206.422L205.067 206.196L205.32 206.027L205.856 205.797L206.135 205.749L206.948 205.797L206.815 205.454L206.848 205.224L207.015 205.177L207.284 205.379L207.355 205.567L207.508 206.185L207.582 206.318L207.813 206.595L207.789 208.511L208.082 209.352L208.125 209.722L208.174 211.807L208.216 213.567L208.167 214.232L207.951 214.747L206.673 216.452L205.463 218.36L203.856 221.228L203.405 222.236L202.053 224.141L201.621 224.634L200.288 225.847L199.801 226.672L199.654 226.814L199.454 226.923L198.458 228.174L198.095 228.753L197.794 229.378L197.585 230.023L197.47 230.673L197.425 231.354L197.446 231.451L197.552 231.631L197.584 231.738L197.577 231.835L197.516 231.985L197.5 232.046L197.536 232.504L197.5 232.687L197.221 233.26L196.788 233.759L195.646 234.573L194.368 235.316L193.487 235.973L191.558 237.131L191.139 237.208L190.975 237.292L190.337 237.843L189.873 238.108L188.399 238.711L187.942 238.992L187.716 239.092L186.627 239.271L185.715 239.588L184.812 240.131L182.816 240.597L180.219 241.504L179.52 241.976L179.137 242.067L178.707 242.256L175.206 242.966L171.705 243.676L169.682 244.539L169.407 244.575L168.544 244.539L162.939 245.617L160.987 245.949L159.074 246.192L156.532 246.708L155.147 246.687L154.842 246.602L154.677 246.589L154.528 246.617L154.422 246.681L154.256 246.815L153.115 247.109L150.724 246.797L149.613 246.815L148.813 247.079L148.69 247.187L148.506 247.273L146.573 246.995L146.408 246.847L146.187 246.781L146.062 246.632L145.987 246.588L145.885 246.591L145.8 246.631L145.726 246.679L145.658 246.707L145.153 246.815L144.556 246.789L142.247 246.104L141.788 245.872L141.43 245.54L141.183 245.077L140.977 244.507L140.818 244.218L140.641 244.095L138.656 243.938L138.45 243.825L138.167 243.729L137.905 243.905L137.776 244.162L137.899 244.311L137.823 244.643L138.048 245.237L137.976 245.51L138.145 245.358L138.313 245.35L138.442 245.461L138.494 245.669L138.461 246.259L138.494 246.372L138.633 246.47L138.805 246.461L139.205 246.372L139.2 246.453L139.118 246.654L139.05 246.903L139.083 247.127L138.781 247.292L138.658 247.442L138.495 248.004L138.365 248.337L138.289 248.48L138.197 248.604L138.174 248.712L138.245 248.832L138.344 248.961L138.403 249.095L138.391 249.384L138.331 249.629L138.307 249.877L138.404 250.169L138.619 250.43L139.169 250.859L139.412 251.145L139.223 251.141L139.071 251.097L138.747 250.928L138.571 251.131L138.684 251.299L138.955 251.418L139.25 251.48L140.209 251.514L140.51 251.588L141.48 252.078L142.002 252.466L142.281 252.883L142.291 253.077L142.241 253.266L142.149 253.432L142.029 253.553L141.874 253.627L141.775 253.593L141.697 253.514L141.609 253.444L141.362 253.313L140.655 252.681L140.425 252.348L140.379 252.262L140.312 252.091L140.256 252.021L140.16 251.968L140.105 251.984L140.062 252.018L140.003 252.022L139.769 251.966L139.079 252.022L139.106 252.168L139.15 252.323L139.22 252.465L139.323 252.574L139.454 252.592L139.622 252.569L139.766 252.588L139.827 252.734L139.929 253.062L140.168 253.396L140.675 253.878L140.904 254.01L141.509 254.172L141.816 254.195L141.885 254.268L141.924 254.424L141.948 254.632L141.893 254.804L141.748 254.945L141.681 255.085L141.647 256.207L141.559 256.384L141.504 256.566L141.196 258.748L141.163 260.172L141.1 260.442L141.027 260.432L140.595 260.701L140.549 260.771L139.621 260.609L139.35 260.446L138.816 260.007L138.77 260.179L138.822 260.344L139.076 260.671L138.772 260.813L138.7 260.939L138.73 261.148L138.74 261.547L138.689 261.822L138.524 262.395L138.441 262.942L138.202 263.61L138.103 263.746L138.064 263.903L138.398 264.845L138.383 265.183L138.193 265.854L138.146 266.119L138.035 266.431L137.772 266.602L137.466 266.71L137.223 266.836L137.014 267.051L136.792 267.337L136.615 267.663L136.543 267.991L136.6 268.222L136.963 268.927L137.151 269.881L137.262 270.031L137.264 270.101L137.468 270.481L137.587 270.576L137.972 270.702L138.386 270.986L138.528 271.033L138.572 271.12L138.56 271.499L138.608 271.586L138.781 271.727L138.919 271.988L139.081 272.136L139.321 271.928L139.489 272.661L139.487 273.074L139.283 273.256L138.695 273.145L138.632 273.082L138.445 272.789L138.314 272.702L138.303 272.852L138.322 272.98L138.368 273.091L138.444 273.2L138.525 273.37L138.504 273.502L138.441 273.58L138.398 273.588L138.514 273.833L138.605 273.895L139.566 273.312L139.944 273.167L140.337 273.145L140.192 273.327L139.75 273.663L139.657 273.869L139.632 274.112L139.522 274.602L139.497 274.872L139.442 275.087L139.077 275.823L138.741 276.703L138.415 277.141L136.586 278.115L135.106 279.048L134.273 279.393L134.06 279.547L133.835 279.765L133.597 279.885L133.327 279.935L133.006 279.948L132.708 279.894L132.593 279.932L132.448 280.109L132.127 280.387L131.943 280.603L131.066 280.841L129.609 281.616L129.044 281.742L126.368 281.63L125.833 281.799L125.542 281.843L124.369 281.731L122.618 281.84L120.679 281.805L120.128 281.675L119.605 281.396L118.373 280.196L117.826 279.948L117.315 279.964L117.192 279.887L117.161 279.726L117.211 279.563L117.322 279.329L117.201 279.204L116.916 279.28L116.581 279.422L116.314 279.491L115.821 279.36L112.834 277.76L111.174 277.307L110.034 276.714L108.925 276.452L108.33 276.404L107.469 276.494L107.073 276.462L106.756 276.346L106.746 276.101L106.972 275.933L107.287 275.831L107.509 275.879L107.456 276.157L107.542 276.148L107.638 276.11L107.708 276.069L107.717 276.047L108.456 276.059L108.675 276.03L108.801 275.916L108.695 275.579L108.332 275.44L108.121 275.292L108.473 274.929L108.171 274.715L107.012 274.434L106.322 274.521L105.887 274.715L105.77 274.818L105.992 274.848L106.394 274.74L106.618 274.818L106.447 275.063L106.497 275.206L106.649 275.318L106.786 275.475L105.531 275.429L105.312 275.533L105.147 275.714L104.164 276.508L104.044 276.65L103.999 276.801L104.011 277.16L103.964 277.311L103.788 277.614L103.65 277.962L103.552 278.334L103.502 278.713L103.509 279.382L103.858 282.164L104.35 284.097L104.374 284.605L104.684 285.532L104.762 286.046L104.912 286.551L105.588 287.29L105.771 287.794L105.748 288.269L105.642 288.82L105.486 289.323L105.313 289.657L105.207 290.114L105.336 290.704L105.687 291.636L105.666 292.228L105.447 292.937L104.93 294.127L104.747 294.831L104.808 295.407L104.992 295.819L105.602 297.186L106.003 297.745L106.457 298.193L107.419 298.852L107.583 298.887L107.849 298.868L107.987 298.882L108.087 298.944L108.289 299.118L108.584 299.28L108.895 299.4L109.144 299.454L109.763 299.458L110.041 299.532L110.286 299.746L110.549 299.924L110.837 299.886L111.134 299.762L111.427 299.692L111.765 299.714L111.929 299.765L112.049 299.865L112.224 300.095L112.254 300.209L111.923 300.358L111.68 300.599L110.738 301.973L110.656 302.144L110.556 302.652L110.639 302.795L110.999 302.885L111.99 302.806L112.491 303.064L112.914 303.056L113.339 302.979L113.612 302.885L113.889 302.736L114.084 302.67L116.397 302.831L116.692 302.75L116.819 302.482L116.88 302.443L117.232 302.089L117.312 301.93L117.332 301.824L117.323 301.522L117.312 301.433L117.247 301.345L117.232 301.231L117.259 301.184L117.32 301.151L117.38 301.101L117.407 300.999L117.38 300.801L117.259 300.476L117.232 300.316L117.125 300.116L116.872 300.002L116.315 299.929L114.978 299.994L114.317 299.916L113.787 299.581L114.195 299.362L115.971 299.116L117.487 298.255L118.485 297.524L119.555 297.03L120.305 296.806L120.813 296.931L121.261 297.387L121.539 297.87L121.917 298.87L121.966 299.173L122.047 299.435L122.239 299.656L122.639 300.022L122.913 300.621L123.005 301.308L122.919 302.98L123.143 305.506L122.986 306.184L122.68 306.874L122.48 307.542L122.64 308.155L122.01 309.009L121.208 309.388L118.682 309.972H117.908L117.653 310.016L117.107 310.291L116.641 310.377L116.264 310.096L115.973 309.759L115.564 309.113L115.336 308.841L115.091 308.728L114.876 308.555L114.881 308.17L114.98 307.776L115.049 307.573L115.279 306.56L115.424 306.431L115.562 306.364L115.479 306.217L115.21 305.974L115.151 305.936L114.966 305.85L114.904 305.789L114.849 305.678L114.797 305.632L114.345 305.387L114.186 305.198L114.124 304.887L113.998 304.664L113.711 304.473L113.193 304.245L112.582 304.073L111.296 304.062L110.402 304.213L110.097 304.32L109.81 304.47L109.498 304.745L109.068 304.837L108.927 304.924L108.834 305.011L108.293 305.767L108.074 305.987L107.839 306.081L107.224 306.145L106.617 306.319L106.327 306.534L106.175 306.787L106.065 307.079L105.898 307.405L105.512 307.834L105.429 308.085L105.516 308.491L105.697 308.722L106.194 308.852L106.591 309.166L107.379 309.419L108.887 310.169L109.304 310.461L109.779 310.911L110.024 311.082L110.415 311.182L110.699 311.337L110.832 311.379L111.018 311.375L111.339 311.285L111.654 311.266L111.776 311.282L111.878 311.334L112.068 311.553L112.287 311.684L112.39 311.785L112.633 311.938L112.945 311.935L113.927 311.526L114.081 311.503L114.09 311.577L114.249 312.015L114.193 312.229L113.929 312.503L112.46 313.492L111.012 314.09L108.552 314.82L106.354 316.373L105.966 316.88L105.725 317.115L105.475 317.296L105.265 317.385L105.129 317.759L105.144 318.062L105.219 318.354L105.265 318.716L105.182 319.012L104.985 319.202L104.75 319.352L103.752 320.41L103.292 321.285L103.081 321.567L102.42 322.169L102.274 322.263L101.804 323.129L101.764 323.301L101.591 323.556L101.551 323.714L101.571 324.703L101.634 324.968L101.895 325.527L101.823 325.752L101.755 326.107L101.745 326.433L101.849 326.576L102.013 326.704L102.113 326.996L102.187 327.327L102.273 327.567L102.327 327.809L102.271 328.464L102.315 328.685L102.485 328.745L102.716 328.673L102.848 328.877L102.562 329.097L102.674 329.486L102.684 329.767L102.925 329.932L103.364 329.909L103.059 330.164L102.806 330.455L102.735 330.741L102.756 330.997L102.784 331.244L102.939 331.336L103.018 331.654L102.822 331.754L102.433 331.831L102.184 331.947L101.985 332.152L101.863 332.728L101.886 333.151L101.912 333.415L102.074 333.669L102.159 333.792L102.259 333.852L102.364 333.967L102.315 334.141L102.355 334.289L102.39 334.468L102.556 334.57L102.504 334.698L102.484 334.843L102.632 335.041L102.842 335.031L102.937 335.106L102.941 335.408L102.993 335.587L102.846 335.656L102.777 335.808L102.765 335.937L102.611 335.957L102.465 335.969L102.389 336.08L102.335 336.264L102.221 336.285L102.145 336.379L102.224 336.454L102.23 336.543L102.124 336.581L102.099 336.621L102.186 336.672L102.144 336.727L102.007 336.707L101.913 336.615L101.847 336.654L101.828 336.75L101.898 336.849L101.855 336.937L101.773 336.975L101.714 337.054L101.616 337.092L101.58 337.212L101.643 337.27L101.779 337.298L101.825 337.388L101.794 337.482L101.734 337.585L101.699 337.689L101.801 337.789L101.875 337.759L101.956 337.745L102.014 337.706L102.182 337.759L102.179 337.856L102.112 337.943L102.126 338.032L102.214 338.083L102.224 338.167L102.093 338.204L101.932 338.159L101.858 338.214L101.815 338.294L101.787 338.415L101.721 338.454L101.675 338.347L101.712 338.17L101.651 338.031L101.506 338.011L101.368 338.047L101.317 338.143L101.244 338.149L101.165 338.114L101.067 338.168L101.049 338.256L101.112 338.398L101.211 338.472L101.214 338.585L101.107 338.638L100.972 338.601L100.881 338.671L100.82 338.783L100.854 338.939L100.981 339.048L101.086 339.051L101.162 339.147L101.275 339.167L101.248 339.271L101.123 339.373L101.058 339.363L101.038 339.2L100.949 339.205L100.882 339.276L100.838 339.38L100.802 339.509L100.732 339.426L100.636 339.366L100.609 339.203L100.53 339.152L100.48 339.183L100.44 339.157L100.377 339.09L100.27 339.152L100.123 339.196L99.977 339.208L99.933 339.312L99.928 339.458L99.987 339.63L99.809 339.616L99.757 339.704L99.506 339.688L98.98 339.951L98.543 340.44L98.294 340.351L97.744 340.788L97.532 341.048L97.403 341.296L97.301 341.431L97.224 341.559L97.097 341.945L97.13 342.426L97.105 342.694L97.048 342.944L96.994 343.097L96.83 343.148L96.713 343.242L96.717 343.6L96.819 343.693L96.744 343.747L96.698 343.9L96.856 344.288L97.073 344.361L97.22 344.35L97.267 344.425L97.364 344.436L97.418 344.519L97.48 344.635L97.684 344.625V344.633L97.858 344.541L98.061 344.608L98.299 344.795L98.609 344.736L98.855 345L99.073 345.08L99.244 345.363L99.088 345.399L98.919 345.598L98.769 345.683L98.708 345.795L98.599 345.881L98.438 345.819L98.336 345.954L98.21 346.072L98.277 346.278L98.427 346.438L98.476 346.676L98.266 346.62L98.131 346.526L98.004 346.669L98.066 346.777L98.245 347.028L97.744 347.371L97.485 347.289L97.231 347.321L97.163 347.638L96.622 347.161L96.416 346.958L95.991 347.019L95.779 347.027L95.604 347.248L95.44 347.152L95.466 346.835L95.306 346.603L95.124 346.627L94.928 346.605L94.714 346.688L94.703 347.005L94.74 347.234L94.482 347.225L94.142 347.395L93.798 347.277L93.538 346.934L93.157 346.602L92.808 346.619L92.001 346.346L91.284 346.485L90.893 346.425L90.635 346.823L90.165 347.228L89.894 347.55L89.659 347.374L89.479 347.321L89.222 347.31L89.056 347.303L88.841 347.37L88.775 347.504L88.519 347.463L88.387 347.655L87.604 347.888L87.249 348.086L86.913 348.445L86.895 348.844L87.501 349.031L87.763 349.149L87.535 349.486L86.328 349.006L86.127 348.974L86.122 349.451L86.677 349.582L86.93 349.914L86.912 350.314L86.459 350.294L85.122 350.288L83.692 350.543L82.669 350.655L81.927 351.021L81.534 351.377L80.943 351.849L80.26 352.655L79.871 353.388L79.408 353.983L78.997 354.608L78.579 355.315L78.308 355.788L77.736 356.353L77.442 356.865L77.269 357.068L76.972 357.279L76.816 357.627L76.672 358.079L76.673 358.623L76.695 358.903L76.933 359.133L76.875 359.306L76.796 359.399L76.579 359.429L76.572 359.679L76.507 359.898L76.519 360.016L76.619 360.151L76.57 360.327L76.417 360.46L76.171 360.405L75.795 360.704L75.614 360.876L75.45 361L75.227 361.657L74.849 361.942L74.721 362.278L74.461 362.61L74.32 362.916L74.5 363.355L74.199 363.519L73.942 363.968L73.903 364.095L73.511 365.368L73.416 365.859L73.377 366.401L73.401 366.999L73.989 369.815L74.405 371.228L74.685 371.886L75.853 374.196L76.568 374.891L76.92 375.231L77.524 375.428L77.907 375.558L78.033 375.705L78.205 376.052L78.678 376.411L79.185 376.521L79.461 376.691L79.641 377.219L80.05 377.598L80.477 378.29L80.652 378.712L80.783 378.75L80.947 378.759L81.063 378.816L81.181 379.071L81.279 379.128L81.406 379.238L82.5 380.505L83.219 381.634L83.688 382.089L84.761 382.651L85.231 382.614L85.628 382.895L86.132 382.707L86.382 382.838L86.634 382.81L86.889 382.731L87.148 382.708L87.344 382.784L87.745 383.025L87.943 383.078L88.62 383.015L88.828 383.078L88.957 383.181L89.621 383.304L90.898 383.589L92.309 383.463L93.01 383.187L93.324 383.119L93.616 383.166L94.358 383.667L94.827 383.715L95.111 384.02L95.242 384.495L95.529 384.741L95.754 385.008L95.869 385.12L96.503 385.662L96.374 386.011L96.591 386.992L96.756 387.572L96.895 388.152L96.725 389.376L96.616 391.208L96.294 392.275L95.939 393.455L95.263 395.456L95.023 395.597L94.656 395.611L94.324 395.535L93.697 395.433L92.969 395.406L92.602 395.747L92.188 396.283L91.864 396.507L91.544 396.633L90.776 397.036L89.995 397.603L89.719 397.684L88.771 397.636L88.578 397.684L89.175 397.891L89.661 397.842L90.608 397.296L90.907 397.211L91.588 397.03L92.758 396.364L93.088 395.982L93.684 395.866L94.235 395.92L94.574 395.963L94.786 396.217L95 397.156L95.17 397.972L95.494 398.32L95.945 398.435L96.297 398.566L95.972 398.812L95.886 399.007L96.139 399.154L96.294 399.238L95.994 399.327L95.673 399.455L95.374 399.504L95.247 399.163L94.601 398.942L94.259 399.108L94.027 399.496L93.956 399.83L94.227 400.019L94.142 400.476L94.098 400.57L94.018 400.669L93.992 400.889L93.752 401.053L93.805 401.234L94.133 401.505L94.555 401.631L94.623 401.924L94.383 402.281L94.042 402.354L93.941 402.114L93.713 402.016L93.487 402.159L93.178 402.145L92.608 402.213L92.257 402.326L92.029 402.456L91.741 402.696L91.642 403.137L91.486 403.407L91.403 403.599L90.889 403.849L90.434 404.035L90.108 404.66L89.665 404.828L89.468 405.057L89.223 405.465L88.999 406.111L89.17 406.694L89.026 406.757L88.615 406.665L88.188 406.65L87.848 406.648L87.812 406.737L87.591 406.919L87.662 407.175L87.604 407.573L87.203 407.827L86.663 408.012L86.279 408.011L85.359 408.144L84.838 408.589L84.143 408.964L83.854 409.315L83.413 409.659L83.055 410.158L82.815 410.32L82.783 410.72L82.709 411.092L82.422 411.205L82.106 411.361L81.227 411.5L80.523 412.106L79.659 412.656L79.383 413.011L79.272 413.937L78.794 414.481L78.688 414.939L78.626 415.355L78.017 415.865L77.106 416.271L76.074 416.961L74.219 419.052L73.993 419.653L73.809 420.343L73.73 420.76L73.495 420.973L73.284 421.196L73.251 421.677L73.495 421.782L73.562 422.101L73.387 422.228L73.294 422.337L73.067 422.438L72.996 422.59L72.941 422.777L72.842 422.967L72.756 423.433L72.422 423.786L72.055 423.921L72.171 424.104L72.321 424.281L72.401 424.473L72.306 424.694L72.129 424.742L71.963 424.92L71.742 425.057L71.895 425.201L71.89 425.452L71.539 425.806L70.843 425.904L70.823 426.015L71.047 426.126L71.307 426.135L72.143 426.115L72.479 425.76L72.664 425.09L72.642 424.59L72.834 424.328L72.906 423.783L73.121 423.498L73.231 423.408L73.411 423.474L73.59 423.744L73.588 424.107L73.544 424.841L73.028 425.86L72.987 426.192L72.744 427.464L72.453 428.834L72.376 429.362V430.196L72.286 430.645L72.231 431.422L72.298 431.707L72.058 433.53L71.675 434.809L71.57 435.238L71.384 435.645L71.298 435.897L71.236 435.983L70.814 436.837L70.055 437.647L68.982 438.534L67.823 439.379L66.669 439.892L65.583 440.096L64.723 440.011L64.556 439.961L64.432 439.825L64.128 439.305L63.847 439.149L63.571 438.687L63.396 438.31L63.286 437.812L63.073 437.332L62.775 436.932L62.353 436.57L62.096 436.094L62.009 435.675L61.761 435.01L61.446 434.548L60.873 433.404L60.716 433.086L60.492 432.855L60.202 432.661L59.906 432.537L59.662 432.511L60.432 433.045L60.593 433.268L60.666 433.556L61.004 434.225L61.432 434.998L61.653 435.848L61.659 436.322L61.464 436.513L61.054 436.809L60.763 436.907L60.465 437.102L60.132 437.141L59.621 437.022L58.876 437.101L57.993 436.99L57.526 437.346L57.125 437.54L56.769 437.552L56.294 437.856V437.999L56.357 438.005L56.484 437.992L56.546 437.998L56.829 437.97L57.505 437.922L57.912 437.565L58.23 437.391L58.401 437.344L58.563 437.353L58.907 437.41L59.301 437.361L59.936 437.505L60.509 437.606L60.901 437.407L61.366 437.182L61.584 437.14L61.778 437.213L61.878 437.319L61.97 437.702L62.213 437.868L62.379 438.008L62.378 438.189L62.39 438.468L62.47 438.872L62.688 439.243L63.021 439.627L63.284 439.81L63.604 439.854L63.804 439.95L63.95 440.181L64.294 440.281L64.457 440.561L64.307 440.955L63.891 441.119L63.615 441.388L63.372 441.56L61.204 442.546L59.699 443.305L59.322 443.252L59.022 443.545L58.985 443.808L58.605 443.935L58.424 443.966L58.228 443.898L57.979 444.059L57.923 444.487L57.69 444.665L57.119 445.482L56.765 445.956L56.586 446.394L56.337 446.89L55.919 447.629L55.72 448.13L55.517 448.495L55.475 449.355L54.949 450.816L54.706 451.586L54.613 452.026L54.643 452.349L54.827 452.841L54.892 454.062L54.882 454.673L54.775 455.169L54.501 455.406L53.925 455.795L53.253 456.55L52.179 457.418L51.658 458.002L51.405 458.695L51.774 458.322L52.481 457.686L52.914 457.361L53.656 456.899L54.038 456.669L54.393 456.627L54.505 456.983L54.52 457.36L54.668 458.172L54.935 459.687L55.123 460.664L55.175 461.263L55.387 461.664L55.481 462.496L55.685 463.359L56.902 466.895L56.995 467.32L57.017 467.729L56.917 468.07L56.68 468.295L56.464 468.25L56.214 468.129H55.872L55.612 468.311L55.212 468.843L54.987 468.953L54.644 468.924L54.345 468.847L52.961 468.062L52.029 467.983L51.819 468.005L51.676 468.06L51.315 468.276L50.624 468.369L50.309 468.467L49.747 468.975L49.149 469.188L48.87 469.357L51.553 468.712L52.116 468.628L52.712 468.729L53.99 469.264L54.528 469.549L54.432 469.884L53.766 470.453V470.577L54.011 470.575L54.236 470.475L55.252 469.911L55.777 469.45L56.103 469.139L56.451 469.083L56.785 469.254L57.247 469.761L58.019 472.013L58.59 472.904L59.496 475.115L60.333 476.918L62.344 480.091L63.866 482.335L64.263 482.958L64.396 483.336L64.302 483.62L63.962 483.999L63.754 484.264L63.622 484.567L63.414 484.662L63.319 484.435L63.395 484.17L63.237 483.754ZM60.708 536.447L60.853 535.75L60.857 534.586L60.976 534.718L61.258 535.293L61.38 535.488L61.613 535.773L61.72 535.943L61.764 536.277L61.53 536.427L60.708 536.447ZM60.859 534.241L60.881 528.538L60.903 522.872L60.925 517.252L60.947 511.666L60.969 506.113L60.991 500.599L61.014 495.117L61.036 489.674L61.439 489.971L61.551 490.144L61.794 490.796L61.895 490.986L62.696 492.176L63.491 493.637L63.71 493.92L64.552 494.681L64.927 495.214L65.241 495.857L65.486 496.615L65.938 498.798L65.98 499.108L65.922 499.438L65.789 499.228L65.647 498.794L65.308 497.325L65.008 497.147L64.76 497.175L64.457 497.341L64.072 497.645L63.714 498.004L63.098 498.778L62.352 499.481L61.933 500.433L61.825 501.151L61.983 501.901L62.5 502.51L63.206 503.118L63.707 503.164L64.271 503.35L65.117 503.581L66.43 503.449L67.389 504.068L67.629 504.724L67.82 505.13L67.744 505.842L67.791 506.01L67.944 506.4L68.074 507.356L68.173 507.773L68.853 509.125L68.961 509.392L71.297 512.005L72.151 512.678L72.42 512.995L72.467 513.315L72.342 513.616L72.663 513.59L72.941 513.522L73.309 513.795L74.195 514.275L74.306 514.509L73.964 514.6L73.832 514.966L73.886 515.465L74.032 515.773L77.4 518.824L79.331 520.284L80.728 520.966L81.539 521.509L81.764 521.892L82.204 522.163L83.935 522.943L84.733 523.752L85.32 524.981L86.548 526.204L86.868 526.737L87.31 526.984L87.434 527.502L87.852 527.663L88.224 527.739L88.73 527.919L89.83 528.639L94.054 530.774L94.223 530.829L94.561 530.864L94.734 530.919L95.153 531.298L95.283 531.355L96.222 531.421L97.081 531.674L100.049 531.21L100.672 531.31L100.998 531.3L101.864 530.912L103.755 531.209L103.923 531.344L103.819 531.645L103.587 531.946L103.373 532.081L103.286 532.265L102.911 533.402L102.965 533.517L103.034 533.736L103.088 533.854L102.67 534.251L102.575 534.407L102.589 534.607L102.657 534.847L102.674 535.054L102.403 535.21L102.01 535.575L101.903 535.721L101.581 537.039L101.432 537.205L101.253 537.315L101.102 537.353L100.835 537.288L100.788 537.116L100.804 536.876L100.727 536.61L100.396 536.403L99.976 536.412L99.697 536.63L99.796 537.05L99.522 537.452L98.526 537.351L98.101 537.476L97.999 537.657L97.94 537.873L97.859 538.074L97.688 538.22L97.437 538.281L97.233 538.225L97.068 538.058L96.932 537.781L96.924 537.675L96.954 537.368L96.932 537.196L96.886 537.06L96.826 536.943L96.666 536.906L96.443 536.888L96.199 536.87L95.694 537.078L94.879 536.74L94.577 536.986L93.783 536.789L93.521 536.973L93.706 537.296L93.973 537.599L93.752 537.966L93.449 538.293L92.617 538.542L91.927 538.79L90.951 538.733L89.467 538.778L88.796 539.003L88.837 539.37L88.796 539.696L88.139 539.88L87.817 540L86.712 539.979L85.61 539.551L85.246 539.329L84.989 539.034L84.779 538.709L84.575 538.463L83.485 537.652L83.139 537.521L81.729 537.354L80.678 536.852L76.966 536.575L74.407 536.197L72.844 536.326L69.594 535.938L67.802 535.588L67.236 535.115L66.063 535L65.409 534.581L65.041 534.435L64.88 534.631L64.925 535.117L64.886 535.298L64.719 535.507L62.356 535.717L62.037 535.634L61.812 535.431L61.437 534.842L60.932 534.271L60.859 534.241ZM119.341 533.11L119.589 533.178L119.865 532.944L120.113 532.792L120.28 533.111L120.016 533.324L119.913 533.451L119.814 533.621L119.658 534.062L119.563 534.215L119.387 534.274L119.155 534.305L119.003 534.388L118.377 534.927L118.236 534.95L118.081 534.846L118.153 534.646L118.377 534.179L118.425 534.052L118.365 533.736L118.219 533.698L118.037 533.835L117.871 534.052L117.7 534.222L117.514 534.283L117.07 534.26L117.016 534.222L116.948 534.212L116.82 534.274L116.752 534.366L116.713 534.489L116.686 534.611L116.651 534.7L116.355 534.858L115.208 535.07L115.132 535.289L114.958 535.398L114.766 535.362L114.636 535.138L114.642 534.907L114.712 534.612L114.872 534.117L114.648 534.127L114.558 534.174L114.46 534.275L114.285 534.108L114.14 534.129L113.865 534.408L113.194 534.846L113.062 534.983L112.837 535.289L112.689 535.43L112.491 535.533L112.277 535.578L111.842 535.588L111.881 535.503L111.905 535.432L111.939 535.366L112.009 535.296V535.138L111.865 535.14L111.734 535.19L111.614 535.286L111.504 535.43L111.552 535.463L111.663 535.588L111.514 535.738L110.923 536.027L110.78 536.204L110.604 536.608L110.496 536.756L110.284 536.824L109.646 536.814L109.48 536.757L109.415 536.567L109.489 536.412L109.624 536.245L109.741 536.028L108.633 535.298L108.694 534.895L108.964 534.641L109.258 534.441L109.397 534.2L109.563 533.973L109.934 534.131L110.539 534.569L110.797 534.526L111.537 534.219L111.756 533.99L111.074 533.277L110.954 532.949L111.293 532.81L111.392 532.91L111.691 533.38L111.84 533.552L112.267 533.698L112.398 533.643L112.629 533.449L112.73 533.407L112.835 533.397L112.959 533.413L113.064 533.517L113.108 533.777L113.115 534.098L113.153 534.226L113.239 534.278L113.384 534.24L113.407 534.132L113.376 533.995L113.361 533.858L113.365 533.501L113.334 533.213L113.348 532.934L113.491 532.606L113.606 532.632L113.778 532.819L113.985 532.953L114.209 532.811L114.269 532.922L114.323 532.95H114.383L114.461 532.971L114.627 533.06L114.998 532.944L115.209 532.972L115.364 533.121L115.517 533.326L115.665 533.482H115.804L115.888 533.274L115.837 533.059L115.822 532.884L116.015 532.813L116.109 532.863L116.28 533.071L116.4 533.118L116.5 533.059L116.589 532.934L116.689 532.823L116.82 532.813L116.887 532.936L117.035 533.413L117.156 533.555L117.309 533.517L117.669 533.196L119.026 532.809L119.433 532.972L119.341 533.11ZM143.715 249.255L143.762 249.183L143.868 249.306L144.044 249.635L144.275 250.418L144.304 250.661L144.194 250.887L143.945 250.906L143.675 250.801L143.502 250.66L143.3 250.444L142.524 250.166L142.243 249.988L142.026 249.776L141.515 249.038L141.38 248.731L141.368 248.481L141.608 248.445L142.065 248.669L143.29 248.955L143.54 249.363L143.567 249.506L143.628 249.515L143.688 249.422L143.715 249.255ZM141.517 247.46L141.338 247.646L141.098 247.611L140.965 247.416L141.104 247.125L142.079 247.176L142.541 247.323L142.915 247.627L142.977 247.833L142.876 248.003L142.677 248.104L142.448 248.109L142.205 248.001L141.517 247.46ZM140.663 269.061L140.986 269.11L141.417 269.113L141.753 269.469L141.965 269.917L142.223 270.365L142.111 270.842L141.753 271.287L141.517 271.795L141.236 272.133L140.896 272.146L140.588 272.02L140.67 271.527L140.534 271.248L140.192 271.462L139.852 271.459L139.653 271.257L139.872 270.966L140.124 270.505L140.192 269.859L140.446 269.076L140.663 269.061ZM141.11 265.136L141.34 265.123L141.707 265.234L142.074 265.39L142.393 265.852L142.342 266.541L142.321 267.43L142.391 268.321L142.312 268.566L142.192 268.227L142.057 267.812L141.768 267.426L141.206 266.562L140.934 265.946L141.11 265.136Z" fill="black" fill-opacity="0.2"/>
</svg>
